Walking01.mot
version=1
nRows=27
nColumns=19
inDegrees=yes
endheader
time	ground_force1_vx	ground_force1_vy	ground_force1_vz	ground_force1_px	ground_force1_py	ground_force1_pz	ground_force2_vx	ground_force2_vy	ground_force2_vz	ground_force2_px	ground_force2_py	ground_force2_pz	ground_torque1_x	ground_torque1_y	ground_torque1_z	ground_torque2_x	ground_torque2_y	ground_torque2_z
      1.24000000	     -9.87899310	    206.93858985	     15.40696567	      0.27325779	      0.00000000	     -0.07292772	     73.16002542	    205.38524345	     -1.73781932	     -0.17344987	      0.00000000	     -0.11813994	      0.00000000	     -0.15511347	      0.00000000	      0.00000000	     -0.81651721	      0.00000000
      1.24100000	    -11.06023469	    212.58037240	     15.62966151	      0.27395996	      0.00000000	     -0.07280969	     71.67025097	    199.94413438	     -2.12297013	     -0.17301236	      0.00000000	     -0.11799667	      0.00000000	     -0.16767291	      0.00000000	      0.00000000	     -0.81491417	      0.00000000
      1.24200000	    -12.39546615	    217.69814637	     15.72307047	      0.27473571	      0.00000000	     -0.07266664	     70.06597394	    194.45670115	     -2.50938410	     -0.17254223	      0.00000000	     -0.11784348	      0.00000000	     -0.17998153	      0.00000000	      0.00000000	     -0.81269319	      0.00000000
      1.24300000	    -13.89794806	    222.38967984	     15.68635807	      0.27558979	      0.00000000	     -0.07249723	     68.35039311	    188.93855841	     -2.89495137	     -0.17204004	      0.00000000	     -0.11768123	      0.00000000	     -0.19186291	      0.00000000	      0.00000000	     -0.80972499	      0.00000000
      1.24400000	    -15.57929306	    226.74377091	     15.51968544	      0.27652601	      0.00000000	     -0.07230065	     66.52795535	    183.40519210	     -3.27741054	     -0.17150663	      0.00000000	     -0.11751051	      0.00000000	     -0.20313945	      0.00000000	      0.00000000	     -0.80589918	      0.00000000
      1.24500000	    -17.44888181	    230.83799248	     15.22389529	      0.27754706	      0.00000000	     -0.07207666	     64.60442287	    177.87159799	     -3.65439661	     -0.17094290	      0.00000000	     -0.11733153	      0.00000000	     -0.21363788	      0.00000000	      0.00000000	     -0.80113570	      0.00000000
      1.24600000	    -19.51321501	    234.73811192	     14.80036894	      0.27865436	      0.00000000	     -0.07182558	     62.58696930	    172.35206860	     -4.02343463	     -0.17034959	      0.00000000	     -0.11714420	      0.00000000	     -0.22319582	      0.00000000	      0.00000000	     -0.79537162	      0.00000000
      1.24700000	    -21.77524193	    238.49857024	     14.25104677	      0.27984788	      0.00000000	     -0.07154830	     60.48418878	    166.86014270	     -4.38194292	     -0.16972728	      0.00000000	     -0.11694834	      0.00000000	     -0.23166990	      0.00000000	      0.00000000	     -0.78854068	      0.00000000
      1.24800000	    -24.23375163	    242.16356544	     13.57862121	      0.28112611	      0.00000000	     -0.07124629	     58.30603805	    161.40881017	     -4.72731151	     -0.16907683	      0.00000000	     -0.11674396	      0.00000000	     -0.23894910	      0.00000000	      0.00000000	     -0.78056876	      0.00000000
      1.24900000	    -26.88291272	    245.76837208	     12.78690209	      0.28248603	      0.00000000	     -0.07092157	     56.06377591	    156.01075092	     -5.05699174	     -0.16839970	      0.00000000	     -0.11653141	      0.00000000	     -0.24497534	      0.00000000	      0.00000000	     -0.77137994	      0.00000000
      1.25000000	    -29.71198543	    249.34055068	     11.88126906	      0.28392311	      0.00000000	     -0.07057665	     53.76992235	    150.67839020	     -5.36854876	     -0.16769794	      0.00000000	     -0.11631162	      0.00000000	     -0.24976652	      0.00000000	      0.00000000	     -0.76090172	      0.00000000
      1.25100000	    -32.70520413	    252.90084351	     10.86907834	      0.28543125	      0.00000000	     -0.07021451	     51.43819565	    145.42377127	     -5.65968571	     -0.16697432	      0.00000000	     -0.11608610	      0.00000000	     -0.25343247	      0.00000000	      0.00000000	     -0.74906772	      0.00000000
      1.25200000	    -35.84186421	    256.46376383	      9.75995833	      0.28700278	      0.00000000	     -0.06983859	     49.08333280	    140.25813902	     -5.92820271	     -0.16623242	      0.00000000	     -0.11585685	      0.00000000	     -0.25617745	      0.00000000	      0.00000000	     -0.73581928	      0.00000000
      1.25300000	    -39.09664402	    260.03794692	      8.56598285	      0.28862857	      0.00000000	     -0.06945272	     46.72079502	    135.19120354	     -6.17190329	     -0.16547638	      0.00000000	     -0.11562610	      0.00000000	     -0.25828821	      0.00000000	      0.00000000	     -0.72110889	      0.00000000
      1.25400000	    -42.44013354	    263.62631221	      7.30170498	      0.29029828	      0.00000000	     -0.06906109	     44.36644839	    130.23045532	     -6.38855116	     -0.16471059	      0.00000000	     -0.11539593	      0.00000000	     -0.26011021	      0.00000000	      0.00000000	     -0.70490500	      0.00000000
      1.25500000	    -45.83952383	    267.22622791	      5.98403982	      0.29200063	      0.00000000	     -0.06866816	     42.03624170	    125.38094362	     -6.57594842	     -0.16393944	      0.00000000	     -0.11516822	      0.00000000	     -0.26201723	      0.00000000	      0.00000000	     -0.68720464	      0.00000000
      1.25600000	    -49.25945525	    270.83002553	      4.63199384	      0.29372371	      0.00000000	     -0.06827858	     39.74587267	    120.64545902	     -6.73206910	     -0.16316718	      0.00000000	     -0.11494461	      0.00000000	     -0.26437848	      0.00000000	      0.00000000	     -0.66805106	      0.00000000
      1.25700000	    -52.66306520	    274.42609083	      3.26622358	      0.29545537	      0.00000000	     -0.06789712	     37.51047269	    116.02475412	     -6.85512580	     -0.16239782	      0.00000000	     -0.11472648	      0.00000000	     -0.26752563	      0.00000000	      0.00000000	     -0.64754190	      0.00000000
      1.25800000	    -56.01328233	    278.00047245	      1.90839700	      0.29718354	      0.00000000	     -0.06752848	     35.34425949	    111.51779479	     -6.94362248	     -0.16163481	      0.00000000	     -0.11451502	      0.00000000	     -0.27172359	      0.00000000	      0.00000000	     -0.62583206	      0.00000000
      1.25900000	    -59.27434438	    281.53875530	      0.58037981	      0.29889667	      0.00000000	     -0.06717712	     33.25991688	    107.12224209	     -6.99650487	     -0.16088107	      0.00000000	     -0.11431137	      0.00000000	     -0.27714970	      0.00000000	      0.00000000	     -0.60312386	      0.00000000
      1.26000000	    -62.41339591	    285.02788587	     -0.69664625	      0.30058407	      0.00000000	     -0.06684710	     31.26761940	    102.83501540	     -7.01334121	     -0.16013935	      0.00000000	     -0.11411673	      0.00000000	     -0.28388465	      0.00000000	      0.00000000	     -0.57963425	      0.00000000
      1.26100000	    -65.40196924	    288.45760805	     -1.90301797	      0.30223616	      0.00000000	     -0.06654189	     29.37418134	     98.65271293	     -6.99442617	     -0.15941254	      0.00000000	     -0.11393250	      0.00000000	     -0.29191752	      0.00000000	      0.00000000	     -0.55557516	      0.00000000
      1.26200000	    -68.21717824	    291.82125023	     -3.02133398	      0.30384468	      0.00000000	     -0.06626432	     27.58287260	     94.57181623	     -6.94075138	     -0.15870367	      0.00000000	     -0.11375999	      0.00000000	     -0.30116347	      0.00000000	      0.00000000	     -0.53115638	      0.00000000
      1.26300000	    -70.84249878	    295.11591149	     -4.03709236	      0.30540270	      0.00000000	     -0.06601650	     25.89381633	     90.58862696	     -6.85383386	     -0.15801528	      0.00000000	     -0.11359980	      0.00000000	     -0.31148486	      0.00000000	      0.00000000	     -0.50657575	      0.00000000
      1.26400000	    -73.26807081	    298.34229534	     -4.93919697	      0.30690472	      0.00000000	     -0.06579987	     24.30456687	     86.69910074	     -6.73554011	     -0.15734805	      0.00000000	     -0.11345123	      0.00000000	     -0.32270647	      0.00000000	      0.00000000	     -0.48200874	      0.00000000
      1.26500000	    -75.49053949	    301.50435188	     -5.72032680	      0.30834669	      0.00000000	     -0.06561509	     22.81068925	     82.89900653	     -6.58801829	     -0.15669988	      0.00000000	     -0.11331220	      0.00000000	     -0.33462313	      0.00000000	      0.00000000	     -0.45761898	      0.00000000
      1.26600000	    -77.51254446	    304.60877141	     -6.37715280	      0.30972599	      0.00000000	     -0.06546207	     21.40631567	     79.18447385	     -6.41366537	     -0.15606669	      0.00000000	     -0.11317965	      0.00000000	     -0.34700529	      0.00000000	      0.00000000	     -0.43356654	      0.00000000
